<svg width="34" height="34" viewBox="0 0 34 34" fill="none" xmlns="http://www.w3.org/2000/svg">
<path d="M27.0923 21.1492L23.6214 20.7529C23.2133 20.7049 22.7996 20.7501 22.4115 20.885C22.0233 21.0199 21.6708 21.2411 21.3804 21.5318L18.8661 24.0461C14.9872 22.0728 11.8343 18.9199 9.86108 15.041L12.389 12.5131C12.9766 11.9255 13.2636 11.1056 13.1679 10.2721L12.7717 6.82857C12.6945 6.16185 12.3747 5.54685 11.8732 5.10079C11.3717 4.65474 10.7236 4.40882 10.0524 4.40992H7.6884C6.14429 4.40992 4.85981 5.6944 4.95546 7.23851C5.67969 18.9081 15.0127 28.2275 26.6686 28.9517C28.2128 29.0473 29.4972 27.7629 29.4972 26.2188V23.8548C29.5109 22.4746 28.4724 21.3131 27.0923 21.1492Z" fill="black"/>
</svg>
