<svg width="38" height="38" viewBox="0 0 38 38" fill="none" xmlns="http://www.w3.org/2000/svg">
<path d="M31.1361 3.13184H6.43846C4.7405 3.13184 3.36669 4.52108 3.36669 6.21904L3.35126 34.0039L9.52567 27.8295H31.1361C32.8341 27.8295 34.2233 26.4402 34.2233 24.7423V6.21904C34.2233 4.52108 32.8341 3.13184 31.1361 3.13184ZM26.5053 21.6551H11.0693C10.2203 21.6551 9.52567 20.9605 9.52567 20.1115C9.52567 19.2625 10.2203 18.5679 11.0693 18.5679H26.5053C27.3543 18.5679 28.0489 19.2625 28.0489 20.1115C28.0489 20.9605 27.3543 21.6551 26.5053 21.6551ZM26.5053 17.0243H11.0693C10.2203 17.0243 9.52567 16.3296 9.52567 15.4807C9.52567 14.6317 10.2203 13.9371 11.0693 13.9371H26.5053C27.3543 13.9371 28.0489 14.6317 28.0489 15.4807C28.0489 16.3296 27.3543 17.0243 26.5053 17.0243ZM26.5053 12.3935H11.0693C10.2203 12.3935 9.52567 11.6988 9.52567 10.8499C9.52567 10.0009 10.2203 9.30625 11.0693 9.30625H26.5053C27.3543 9.30625 28.0489 10.0009 28.0489 10.8499C28.0489 11.6988 27.3543 12.3935 26.5053 12.3935Z" fill="white"/>
</svg>
