<svg width="23" height="19" viewBox="0 0 23 19" fill="none" xmlns="http://www.w3.org/2000/svg">
<path d="M0.142671 18.1276V12.9999C0.142671 11.5439 0.427544 10.0562 0.99729 8.53688C1.56704 7.01756 2.31879 5.58528 3.25254 4.24004C4.18629 2.89481 5.19917 1.77114 6.29118 0.869045L10.7542 3.50412C9.86793 4.89684 9.13992 6.35285 8.57017 7.87218C8.01625 9.3915 7.73929 11.0849 7.73929 12.9524V18.1276H0.142671ZM12.1311 18.1276V12.9999C12.1311 11.5439 12.416 10.0562 12.9857 8.53688C13.5555 7.01756 14.3072 5.58528 15.241 4.24004C16.1747 2.89481 17.1876 1.77114 18.2796 0.869045L22.7426 3.50412C21.8563 4.89684 21.1283 6.35285 20.5586 7.87218C20.0047 9.3915 19.7277 11.0849 19.7277 12.9524V18.1276H12.1311Z" fill="white"/>
</svg>
