<svg width="22" height="22" viewBox="0 0 22 22" fill="none" xmlns="http://www.w3.org/2000/svg">
<path d="M6.79663 0.074707H15.7462C19.1555 0.074707 21.9256 2.8448 21.9256 6.25415V15.2037C21.9256 16.8426 21.2746 18.4143 20.1157 19.5732C18.9568 20.7321 17.385 21.3831 15.7462 21.3831H6.79663C3.38728 21.3831 0.617188 18.613 0.617188 15.2037V6.25415C0.617188 4.61526 1.26823 3.04349 2.4271 1.88462C3.58597 0.725753 5.15774 0.074707 6.79663 0.074707ZM6.58354 2.20555C5.5663 2.20555 4.59072 2.60965 3.87142 3.32894C3.15213 4.04824 2.74803 5.02382 2.74803 6.04106V15.4168C2.74803 17.5369 4.46336 19.2523 6.58354 19.2523H15.9592C16.9765 19.2523 17.9521 18.8482 18.6714 18.1289C19.3907 17.4096 19.7948 16.434 19.7948 15.4168V6.04106C19.7948 3.92088 18.0794 2.20555 15.9592 2.20555H6.58354ZM16.8649 3.80368C17.2181 3.80368 17.5568 3.94399 17.8066 4.19375C18.0563 4.4435 18.1966 4.78225 18.1966 5.13545C18.1966 5.48866 18.0563 5.82741 17.8066 6.07716C17.5568 6.32692 17.2181 6.46723 16.8649 6.46723C16.5116 6.46723 16.1729 6.32692 15.9231 6.07716C15.6734 5.82741 15.5331 5.48866 15.5331 5.13545C15.5331 4.78225 15.6734 4.4435 15.9231 4.19375C16.1729 3.94399 16.5116 3.80368 16.8649 3.80368ZM11.2714 5.40181C12.6842 5.40181 14.0392 5.96306 15.0382 6.96208C16.0372 7.96111 16.5985 9.31608 16.5985 10.7289C16.5985 12.1417 16.0372 13.4967 15.0382 14.4957C14.0392 15.4948 12.6842 16.056 11.2714 16.056C9.85856 16.056 8.50359 15.4948 7.50456 14.4957C6.50554 13.4967 5.94429 12.1417 5.94429 10.7289C5.94429 9.31608 6.50554 7.96111 7.50456 6.96208C8.50359 5.96306 9.85856 5.40181 11.2714 5.40181ZM11.2714 7.53265C10.4237 7.53265 9.61071 7.8694 9.01129 8.46881C8.41188 9.06823 8.07513 9.88121 8.07513 10.7289C8.07513 11.5766 8.41188 12.3896 9.01129 12.989C9.61071 13.5884 10.4237 13.9252 11.2714 13.9252C12.1191 13.9252 12.9321 13.5884 13.5315 12.989C14.1309 12.3896 14.4677 11.5766 14.4677 10.7289C14.4677 9.88121 14.1309 9.06823 13.5315 8.46881C12.9321 7.8694 12.1191 7.53265 11.2714 7.53265Z" fill="#E6E6E6"/>
</svg>
