<svg width="20" height="21" viewBox="0 0 20 21" fill="none" xmlns="http://www.w3.org/2000/svg">
<path d="M17.7347 0.785156C18.3208 0.785156 18.8829 1.01797 19.2973 1.43238C19.7117 1.84679 19.9445 2.40885 19.9445 2.99492V18.4632C19.9445 19.0493 19.7117 19.6114 19.2973 20.0258C18.8829 20.4402 18.3208 20.673 17.7347 20.673H2.2664C1.68034 20.673 1.11828 20.4402 0.703865 20.0258C0.289454 19.6114 0.0566406 19.0493 0.0566406 18.4632V2.99492C0.0566406 2.40885 0.289454 1.84679 0.703865 1.43238C1.11828 1.01797 1.68034 0.785156 2.2664 0.785156H17.7347ZM17.1823 17.9108V12.0549C17.1823 11.0997 16.8028 10.1835 16.1273 9.508C15.4518 8.83251 14.5357 8.45303 13.5804 8.45303C12.6412 8.45303 11.5474 9.02757 11.0171 9.88937V8.66295H7.93444V17.9108H11.0171V12.4637C11.0171 11.613 11.7021 10.9169 12.5528 10.9169C12.9631 10.9169 13.3565 11.0799 13.6466 11.37C13.9367 11.6601 14.0997 12.0535 14.0997 12.4637V17.9108H17.1823ZM4.34358 6.92829C4.83587 6.92829 5.308 6.73273 5.65611 6.38462C6.00421 6.03652 6.19978 5.56439 6.19978 5.07209C6.19978 4.04455 5.37112 3.20484 4.34358 3.20484C3.84835 3.20484 3.37341 3.40157 3.02323 3.75175C2.67306 4.10193 2.47633 4.57687 2.47633 5.07209C2.47633 6.09963 3.31604 6.92829 4.34358 6.92829ZM5.87936 17.9108V8.66295H2.81884V17.9108H5.87936Z" fill="#E6E6E6"/>
</svg>
