<svg width="41" height="33" viewBox="0 0 41 33" fill="none" xmlns="http://www.w3.org/2000/svg">
<path d="M4.00504 32.5203C2.90365 32.5203 1.96113 32.1285 1.17748 31.3448C0.393829 30.5611 0.00133501 29.618 0 28.5152V4.48502C0 3.38363 0.392494 2.44111 1.17748 1.65746C1.96247 0.873809 2.90499 0.481315 4.00504 0.47998H36.0453C37.1467 0.47998 38.0899 0.872474 38.8749 1.65746C39.6599 2.44245 40.0517 3.38497 40.0504 4.48502V28.5152C40.0504 29.6166 39.6586 30.5598 38.8749 31.3448C38.0912 32.1298 37.1481 32.5216 36.0453 32.5203H4.00504ZM20.0252 18.5026L4.00504 8.49006V28.5152H36.0453V8.49006L20.0252 18.5026ZM20.0252 14.4976L36.0453 4.48502H4.00504L20.0252 14.4976ZM4.00504 8.49006V4.48502V28.5152V8.49006Z" fill="white"/>
</svg>
